<svg width="400" height="300" viewBox="0 0 400 300" xmlns="http://www.w3.org/2000/svg">
  <defs>
    <linearGradient id="lacteosGrad" x1="0%" y1="0%" x2="100%" y2="100%">
      <stop offset="0%" style="stop-color:#F5EFD7;stop-opacity:1" />
      <stop offset="100%" style="stop-color:#CC9F53;stop-opacity:1" />
    </linearGradient>
  </defs>
  
  <!-- Background -->
  <rect width="400" height="300" fill="url(#lacteosGrad)"/>
  
  <!-- Decorative pattern -->
  <circle cx="50" cy="50" r="20" fill="white" opacity="0.2"/>
  <circle cx="350" cy="60" r="15" fill="white" opacity="0.3"/>
  <circle cx="380" cy="200" r="25" fill="white" opacity="0.2"/>
  <circle cx="30" cy="250" r="18" fill="white" opacity="0.3"/>
  
  <!-- Milk glass -->
  <rect x="100" y="120" width="60" height="80" rx="5" fill="white" stroke="#CC9F53" stroke-width="2"/>
  <rect x="105" y="140" width="50" height="55" fill="#F8F8FF"/>
  
  <!-- Cheese wheel -->
  <ellipse cx="280" cy="160" rx="50" ry="50" fill="#FFF8DC" stroke="#CC9F53" stroke-width="3"/>
  <circle cx="260" cy="140" r="3" fill="#F0E68C" opacity="0.7"/>
  <circle cx="290" cy="150" r="4" fill="#F0E68C" opacity="0.6"/>
  <circle cx="270" cy="170" r="3" fill="#F0E68C" opacity="0.8"/>
  <circle cx="300" cy="180" r="3" fill="#F0E68C" opacity="0.5"/>
  
  <!-- Butter -->
  <rect x="180" y="140" width="40" height="25" rx="3" fill="#FFFFE0" stroke="#CC9F53" stroke-width="1"/>
  <rect x="182" y="142" width="36" height="21" rx="2" fill="#FFFACD"/>
  
  <!-- Yogurt container -->
  <rect x="120" y="220" width="35" height="45" rx="8" fill="#FFB6C1" stroke="#CC9F53" stroke-width="2"/>
  <ellipse cx="137.5" cy="220" rx="17.5" ry="5" fill="#FF69B4" opacity="0.8"/>
  
  <!-- Milk drops -->
  <circle cx="90" cy="100" r="4" fill="white" opacity="0.8"/>
  <circle cx="110" cy="90" r="3" fill="white" opacity="0.9"/>
  <circle cx="130" cy="95" r="3.5" fill="white" opacity="0.7"/>
  
  <!-- Category title -->
  <rect x="50" y="250" width="300" height="40" rx="5" fill="white" opacity="0.9"/>
  <text x="200" y="270" text-anchor="middle" font-family="Arial, sans-serif" font-size="24" fill="#CC9F53" font-weight="bold">LÁCTEOS</text>
  <text x="200" y="285" text-anchor="middle" font-family="Arial, sans-serif" font-size="14" fill="#8B4513">Frescos y Naturales</text>
  
  <!-- DELA brand watermark -->
  <text x="200" y="40" text-anchor="middle" font-family="Arial, sans-serif" font-size="20" fill="#CC9F53" font-weight="bold" opacity="0.7">DELA</text>
</svg>
