<svg width="300" height="300" viewBox="0 0 300 300" xmlns="http://www.w3.org/2000/svg">
  <defs>
    <linearGradient id="productGrad5" x1="0%" y1="0%" x2="100%" y2="100%">
      <stop offset="0%" style="stop-color:#F5EFD7;stop-opacity:1" />
      <stop offset="100%" style="stop-color:#CC9F53;stop-opacity:1" />
    </linearGradient>
  </defs>
  
  <!-- Background -->
  <rect width="300" height="300" fill="url(#productGrad5)"/>
  
  <!-- Bottle shadow -->
  <ellipse cx="150" cy="240" rx="40" ry="8" fill="#CC9F53" opacity="0.3"/>
  
  <!-- Bottle body -->
  <rect x="130" y="120" width="40" height="100" rx="5" fill="#98FB98" opacity="0.8" stroke="#CC9F53" stroke-width="2"/>
  
  <!-- Bottle neck -->
  <rect x="140" y="100" width="20" height="25" fill="#98FB98" opacity="0.8" stroke="#CC9F53" stroke-width="2"/>
  
  <!-- Bottle cap -->
  <rect x="138" y="95" width="24" height="10" rx="3" fill="#8B4513"/>
  
  <!-- Oil inside -->
  <rect x="135" y="140" width="30" height="75" rx="3" fill="#FFD700" opacity="0.7"/>
  
  <!-- Oil level -->
  <path d="M 135 140 Q 150 145 165 140 L 165 155 Q 150 160 135 155 Z" fill="#FFA500" opacity="0.6"/>
  
  <!-- Label -->
  <rect x="135" y="160" width="30" height="40" rx="2" fill="white" opacity="0.9"/>
  <text x="150" y="175" text-anchor="middle" font-family="Arial, sans-serif" font-size="7" fill="#CC9F53" font-weight="bold">ACEITE</text>
  <text x="150" y="183" text-anchor="middle" font-family="Arial, sans-serif" font-size="6" fill="#8B4513">OLIVA</text>
  <text x="150" y="191" text-anchor="middle" font-family="Arial, sans-serif" font-size="5" fill="#8B4513">EXTRA</text>
  <text x="150" y="197" text-anchor="middle" font-family="Arial, sans-serif" font-size="5" fill="#8B4513">VIRGEN</text>
  
  <!-- Olive branch decoration -->
  <path d="M 120 90 Q 125 85 130 90" stroke="#556B2F" stroke-width="2" fill="none"/>
  <circle cx="118" cy="92" r="2" fill="#556B2F"/>
  <circle cx="125" cy="88" r="1.5" fill="#556B2F"/>
  <circle cx="132" cy="92" r="2" fill="#556B2F"/>
  
  <!-- DELA brand -->
  <text x="150" y="40" text-anchor="middle" font-family="Arial, sans-serif" font-size="24" fill="#CC9F53" font-weight="bold">DELA</text>
  <text x="150" y="60" text-anchor="middle" font-family="Arial, sans-serif" font-size="12" fill="#8B4513">Aceites Premium</text>
</svg>
