<svg width="300" height="300" viewBox="0 0 300 300" xmlns="http://www.w3.org/2000/svg">
  <defs>
    <linearGradient id="productGrad2" x1="0%" y1="0%" x2="100%" y2="100%">
      <stop offset="0%" style="stop-color:#F5EFD7;stop-opacity:1" />
      <stop offset="100%" style="stop-color:#CC9F53;stop-opacity:1" />
    </linearGradient>
  </defs>
  
  <!-- Background -->
  <rect width="300" height="300" fill="url(#productGrad2)"/>
  
  <!-- Cheese wheel shadow -->
  <ellipse cx="150" cy="240" rx="80" ry="20" fill="#CC9F53" opacity="0.3"/>
  
  <!-- Cheese wheel -->
  <ellipse cx="150" cy="180" rx="75" ry="75" fill="#FFF8DC" stroke="#CC9F53" stroke-width="3"/>
  
  <!-- Cheese texture -->
  <circle cx="130" cy="160" r="4" fill="#F0E68C" opacity="0.7"/>
  <circle cx="160" cy="170" r="3" fill="#F0E68C" opacity="0.6"/>
  <circle cx="140" cy="190" r="5" fill="#F0E68C" opacity="0.8"/>
  <circle cx="170" cy="200" r="3" fill="#F0E68C" opacity="0.5"/>
  <circle cx="155" cy="150" r="3" fill="#F0E68C" opacity="0.7"/>
  
  <!-- Cheese rind -->
  <path d="M 75 180 Q 150 120 225 180 Q 150 240 75 180" fill="none" stroke="#D2691E" stroke-width="2"/>
  
  <!-- Cut section -->
  <path d="M 150 105 L 185 140 A 75 75 0 0 1 185 220 L 150 255 Z" fill="#FFFACD" opacity="0.9"/>
  
  <!-- Label -->
  <rect x="110" y="120" width="80" height="30" rx="5" fill="white" opacity="0.9"/>
  <text x="150" y="135" text-anchor="middle" font-family="Arial, sans-serif" font-size="10" fill="#CC9F53" font-weight="bold">QUESO</text>
  <text x="150" y="145" text-anchor="middle" font-family="Arial, sans-serif" font-size="8" fill="#8B4513">ARTESANAL</text>
  
  <!-- DELA brand -->
  <text x="150" y="40" text-anchor="middle" font-family="Arial, sans-serif" font-size="24" fill="#CC9F53" font-weight="bold">DELA</text>
  <text x="150" y="60" text-anchor="middle" font-family="Arial, sans-serif" font-size="12" fill="#8B4513">Lácteos Frescos</text>
</svg>
