<?xml version="1.0" standalone="no"?>
<!DOCTYPE svg PUBLIC "-//W3C//DTD SVG 20010904//EN"
 "http://www.w3.org/TR/2001/REC-SVG-20010904/DTD/svg10.dtd">
<svg version="1.0" xmlns="http://www.w3.org/2000/svg"
 width="300" height="300" viewBox="0 0 4043.000000 4106.000000"
 preserveAspectRatio="xMidYMid meet">
<metadata>
Created by potrace 1.16, written by Peter Selinger 2001-2019
</metadata>
<g transform="translate(0.000000,4106.000000) scale(0.100000,-0.100000)"
fill="#2D2926" stroke="none">
<path d="M19635 40373 c-3488 -115 -6792 -1083 -9745 -2853 -2097 -1257 -3924
-2858 -5452 -4775 -2349 -2949 -3820 -6489 -4253 -10235 -67 -583 -125 -1419
-125 -1812 l0 -138 -30 0 -30 0 0 -340 0 -340 28 0 29 0 6 -267 c15 -590 69
-1276 153 -1933 506 -3993 2209 -7748 4888 -10785 597 -677 1307 -1378 1993
-1968 3041 -2613 6780 -4259 10748 -4732 604 -71 1248 -119 1793 -132 l282 -6
0 -29 0 -28 300 0 300 0 0 28 0 29 273 6 c1986 47 4133 444 6057 1119 3407
1197 6426 3277 8756 6033 2461 2911 4040 6426 4573 10180 103 720 191 1752
191 2226 l0 109 30 0 30 0 0 485 0 485 -28 0 -29 0 -6 228 c-12 392 -44 863
-92 1332 -411 4020 -2026 7823 -4641 10926 -642 763 -1383 1519 -2134 2178
-2178 1914 -4759 3346 -7520 4171 -1654 495 -3312 767 -5090 835 -224 9 -1032
11 -1255 3z m3215 -4853 c0 -34 -43 -516 -95 -1073 -52 -557 -96 -1031 -97
-1053 -2 -60 26 -100 99 -143 l62 -36 1 -72 0 -72 -32 -5 c-50 -8 -645 -46
-712 -46 l-59 0 5 85 6 85 -29 -20 c-40 -29 -132 -70 -192 -86 -73 -19 -315
-19 -392 1 -200 53 -375 241 -436 472 -27 99 -37 363 -20 510 40 346 181 572
433 699 97 49 172 64 323 64 157 0 226 -15 352 -75 51 -24 93 -39 93 -33 0 6
9 108 21 226 19 201 19 218 4 258 -20 53 -73 123 -114 149 -30 19 -31 23 -31
91 l0 71 178 6 c165 6 356 25 462 46 25 5 73 9 108 10 l62 1 0 -60z m2290
-630 c143 -34 345 -67 483 -76 l97 -7 0 -62 c0 -56 -34 -159 -335 -1019 -355
-1015 -375 -1075 -375 -1112 0 -12 23 -53 50 -89 45 -60 50 -71 50 -118 0 -90
-5 -97 -64 -97 -40 1 -144 33 -471 148 l-420 147 -3 57 c-4 78 6 92 75 107
110 25 143 51 196 156 31 62 531 1491 559 1595 23 92 19 116 -32 189 -36 51
-40 63 -40 118 0 34 3 68 6 77 10 25 86 20 224 -14z m-5411 -120 c74 -11 135
-21 137 -23 11 -10 94 -458 94 -503 0 -60 -5 -64 -87 -64 l-56 0 -107 109
c-118 119 -257 219 -332 240 -43 12 -50 11 -80 -6 -18 -10 -43 -34 -55 -52
-22 -33 -22 -33 -3 -70 24 -47 85 -103 149 -135 27 -14 113 -50 191 -80 413
-162 534 -284 554 -561 14 -188 -21 -310 -120 -415 -73 -77 -157 -126 -274
-161 -106 -31 -421 -38 -595 -14 -125 17 -243 39 -251 47 -10 11 -114 504
-114 543 0 50 8 55 87 55 l56 0 131 -127 c177 -173 341 -282 424 -283 66 0
149 75 136 124 -11 44 -87 118 -167 164 -42 24 -149 75 -238 114 -342 147
-455 253 -490 461 -17 101 -7 267 20 337 55 144 212 262 405 305 99 21 424 19
585 -5z m-1569 -245 c214 -67 390 -261 444 -491 10 -39 16 -92 14 -119 l-3
-50 -472 -110 c-259 -60 -475 -113 -478 -117 -10 -10 31 -95 80 -164 73 -102
186 -170 324 -196 64 -11 174 9 258 49 78 36 157 113 194 189 l32 64 48 0 c26
0 60 -5 75 -10 l27 -11 -6 -112 c-7 -132 -24 -203 -77 -313 -107 -221 -327
-345 -646 -361 -243 -12 -452 49 -595 176 l-46 40 -7 -54 c-8 -75 -56 -202
-101 -269 -51 -77 -125 -140 -209 -180 -100 -48 -161 -59 -306 -55 -118 4
-130 6 -192 37 -85 42 -160 122 -203 217 -18 39 -103 275 -191 526 -156 450
-159 457 -182 448 -13 -5 -48 -9 -78 -9 -54 0 -55 1 -71 38 -9 20 -18 65 -21
99 l-4 62 61 75 c141 172 268 384 317 530 13 39 30 73 37 78 6 4 42 8 79 8
l66 0 15 -42 c40 -118 120 -343 122 -346 1 -1 66 20 144 48 102 36 158 50 195
50 l53 0 13 -102 c20 -169 30 -154 -147 -217 -84 -29 -153 -57 -153 -61 0 -5
61 -187 134 -405 88 -259 146 -414 167 -447 42 -65 97 -102 138 -93 45 10 115
60 146 105 24 35 33 40 66 40 l38 0 -25 38 c-68 99 -122 245 -150 406 -20 115
-14 370 11 461 83 297 313 499 638 561 99 19 352 12 427 -11z m5793 -49 c200
-51 346 -151 435 -296 11 -20 36 -78 54 -130 31 -92 32 -101 33 -255 0 -101
-5 -183 -14 -222 l-14 -63 -61 0 c-44 0 -185 29 -481 101 -231 55 -428 101
-439 102 -30 3 -41 -82 -22 -174 41 -193 196 -344 413 -400 112 -28 187 -12
293 66 41 30 56 35 102 35 30 0 59 -5 66 -12 7 -7 12 -39 12 -73 0 -52 -5 -68
-36 -115 -81 -124 -219 -237 -344 -282 -60 -21 -81 -23 -260 -23 -187 1 -199
2 -280 29 -222 74 -379 202 -475 387 -65 127 -85 220 -85 407 0 320 79 540
260 723 124 125 267 198 432 219 113 14 305 3 411 -24z m-8770 -160 c56 -24
114 -81 134 -134 13 -34 18 -74 18 -147 0 -90 -3 -106 -28 -158 -32 -63 -95
-120 -156 -138 -21 -6 -89 -9 -157 -7 -114 3 -123 5 -170 33 -26 17 -62 50
-79 74 -29 41 -30 48 -33 158 -3 91 0 125 14 161 31 83 108 148 201 172 54 13
211 5 256 -14z m12155 -323 l462 -267 0 -51 c0 -31 -6 -60 -17 -74 -16 -23
-19 -24 -110 -18 -142 10 -182 -15 -217 -133 -9 -30 -59 -307 -111 -615 -52
-308 -97 -568 -99 -578 -6 -23 -23 -37 479 375 457 376 500 418 499 489 -1 21
-18 72 -38 115 -38 81 -46 141 -24 189 10 22 17 25 64 25 49 0 68 -9 358 -177
l306 -176 0 -54 c0 -80 -8 -89 -87 -98 -158 -17 -262 -58 -404 -162 -36 -26
-413 -329 -838 -673 l-773 -625 -52 -3 c-48 -3 -61 2 -139 48 l-87 51 0 52
c-1 29 75 554 166 1167 117 779 165 1126 161 1151 -4 20 -27 67 -52 105 -37
57 -45 77 -45 117 0 75 10 87 79 87 57 0 60 -1 519 -267z m-11559 -773 c141
-316 272 -602 289 -635 59 -111 103 -141 217 -152 57 -5 65 -8 75 -33 6 -15
10 -49 8 -76 l-3 -48 -405 -182 c-353 -159 -412 -183 -457 -183 -63 -1 -73 12
-73 93 0 48 6 64 40 117 22 34 40 72 40 84 0 37 -33 120 -170 425 -158 352
-190 417 -243 493 -49 70 -83 92 -173 112 -38 9 -75 23 -81 32 -7 9 -13 43
-13 74 l0 57 68 37 c105 58 307 195 417 284 99 80 101 80 153 78 l53 -2 258
-575z m-1220 -31 c181 -29 378 -165 465 -322 29 -52 36 -74 36 -119 l0 -56
-387 -223 c-214 -123 -401 -231 -417 -240 l-30 -18 80 -79 c102 -101 182 -143
288 -150 217 -14 469 170 501 363 15 92 7 85 90 85 l74 0 11 -37 c7 -21 14
-103 17 -183 9 -229 -21 -345 -121 -477 -103 -136 -279 -245 -464 -287 -105
-24 -342 -22 -449 4 -233 56 -420 216 -548 470 -85 169 -110 291 -102 497 6
159 21 223 80 343 34 70 58 102 137 181 101 102 187 160 308 206 128 48 293
65 431 42z m-1329 -889 c676 -939 678 -941 733 -981 38 -27 46 -29 137 -29 61
0 100 -4 108 -12 7 -7 12 -38 12 -72 l-1 -61 -358 -257 -359 -258 -56 0 c-44
0 -57 4 -66 19 -17 33 -12 125 10 172 27 60 25 85 -13 152 -28 50 -720 1018
-913 1277 -79 106 -140 170 -198 209 -34 22 -47 25 -119 23 -103 -3 -117 8
-117 88 l0 57 103 92 c109 99 249 246 337 356 l54 66 53 -3 52 -3 601 -835z
m15585 -174 c171 -59 310 -150 439 -286 124 -132 164 -242 152 -415 -14 -209
-36 -248 -375 -664 -155 -188 -281 -345 -281 -347 0 -3 18 5 40 16 23 12 59
20 88 20 45 0 51 -3 61 -28 7 -16 11 -55 9 -88 l-3 -59 -50 -27 c-137 -74
-369 -78 -507 -7 -61 31 -134 105 -164 164 -23 49 -25 61 -22 163 l3 109 -140
5 c-117 5 -153 10 -220 32 -156 53 -286 159 -347 284 -33 66 -33 68 -33 207 0
131 2 144 27 198 33 70 121 164 186 200 84 45 151 57 327 57 92 -1 189 -6 230
-14 39 -8 71 -13 71 -12 1 0 -27 82 -62 180 -48 135 -64 193 -64 232 0 62 3
65 113 95 62 16 99 19 257 16 172 -3 191 -5 265 -31z m1674 -395 c116 -92 271
-197 394 -266 l88 -50 -3 -56 -3 -55 -750 -762 c-412 -419 -767 -787 -788
-819 -40 -59 -39 -56 -16 -145 8 -31 15 -38 56 -52 69 -24 92 -20 160 27 74
51 1217 1042 1289 1118 28 30 63 76 79 103 27 46 29 56 26 139 -3 111 7 127
83 127 50 0 53 -2 144 -85 116 -107 260 -222 375 -299 l87 -60 0 -52 0 -53
-792 -689 c-436 -379 -819 -717 -850 -751 -65 -70 -74 -92 -59 -147 6 -22 11
-61 11 -88 0 -69 -18 -86 -89 -86 l-56 0 -290 335 c-266 307 -554 607 -867
905 -77 72 -78 74 -78 123 0 71 17 87 92 87 33 0 79 -5 103 -11 41 -10 48 -9
92 16 31 17 205 185 486 469 712 717 848 867 848 932 0 11 -3 58 -7 106 -9
110 -3 118 77 118 59 0 60 -1 158 -79z m-18023 -61 c133 -34 237 -92 326 -182
78 -78 78 -79 77 -131 l0 -52 -355 -315 -355 -314 33 -28 c95 -80 210 -131
298 -132 163 -1 371 139 454 305 34 67 36 78 36 164 0 107 -2 105 94 105 l62
0 28 -72 c42 -109 56 -189 56 -333 0 -151 -13 -216 -65 -314 -77 -146 -205
-269 -360 -345 -125 -62 -186 -76 -356 -83 -283 -11 -451 51 -646 240 -141
137 -235 286 -279 447 -26 93 -26 377 0 470 73 268 317 512 575 575 88 21 283
19 377 -5z m-1601 -959 c103 -29 264 -105 362 -173 102 -70 272 -233 346 -333
100 -135 176 -303 213 -475 22 -103 30 -338 15 -453 -22 -164 -95 -352 -194
-500 -25 -37 -209 -272 -409 -522 l-363 -455 -60 0 c-34 0 -66 5 -73 12 -16
16 -15 117 2 195 13 62 13 64 -14 105 -15 24 -47 62 -71 84 -24 23 -309 255
-634 515 -783 628 -758 609 -823 588 -20 -6 -58 -22 -84 -35 -51 -26 -134 -32
-169 -14 -15 9 -19 22 -19 71 l0 59 327 408 c340 424 497 596 644 706 155 115
316 191 479 227 123 27 410 21 525 -10z m20485 -1276 c36 -8 103 -34 150 -57
72 -35 101 -58 190 -147 116 -117 169 -200 217 -336 26 -75 27 -91 27 -240 0
-149 -2 -165 -27 -234 -56 -154 -136 -263 -253 -347 -58 -42 -67 -45 -115 -42
l-52 3 -264 375 c-146 206 -269 382 -274 390 -14 23 -121 -97 -166 -186 -68
-139 -53 -275 47 -428 94 -143 205 -217 337 -224 81 -5 83 -6 83 -100 0 -52
-1 -53 -37 -68 -101 -43 -351 -58 -484 -30 -221 47 -431 256 -515 513 -28 85
-29 94 -29 288 0 223 9 268 81 406 117 223 393 422 659 475 91 18 334 12 425
-11z m-24075 -4305 c1376 -58 2383 -375 3175 -999 140 -110 478 -454 590 -599
287 -374 480 -743 628 -1204 117 -360 187 -734 224 -1193 15 -194 15 -827 0
-1020 -87 -1065 -387 -1873 -951 -2553 -706 -852 -1744 -1355 -3100 -1502
-363 -39 -509 -45 -1121 -44 -1039 3 -1886 47 -2680 140 -204 24 -658 88 -709
101 l-23 6 6 191 c43 1324 43 6918 0 8242 l-6 191 58 11 c294 56 891 127 1389
167 746 59 1933 90 2520 65z m12932 -218 c79 -251 111 -464 120 -787 10 -403
-36 -813 -130 -1141 l-22 -79 -47 -3 c-39 -3 -355 101 -2073 677 -1114 375
-2028 681 -2031 681 -3 0 -3 -720 -2 -1599 l3 -1599 25 4 c145 26 3481 524
3513 524 41 0 44 -2 74 -52 89 -147 173 -366 215 -558 20 -93 22 -133 23 -355
0 -274 -7 -332 -66 -515 -34 -105 -108 -264 -164 -352 l-37 -58 -56 0 c-31 0
-838 139 -1792 309 -954 170 -1736 309 -1737 307 -7 -7 -13 -2807 -6 -3092 l8
-340 280 87 c1990 619 2785 868 3225 1007 344 108 545 167 582 170 l57 4 15
-54 c47 -163 91 -454 107 -708 24 -385 -15 -822 -99 -1120 l-19 -65 -3403 -3
-3403 -2 7 307 c39 1722 53 3757 37 5480 -11 1301 -19 1853 -37 2654 l-6 307
728 6 c2457 21 3319 30 5274 55 327 5 642 8 700 7 l104 -1 33 -103z m4473 32
c8 -8 7 -143 -4 -510 -47 -1513 -60 -2378 -61 -4124 0 -1474 15 -2848 34
-3131 l6 -96 1719 529 c1492 458 1727 528 1782 528 l62 0 26 -111 c68 -289 91
-509 91 -879 0 -372 -17 -534 -87 -822 l-31 -128 -3135 0 -3135 0 7 233 c34
1250 44 5635 16 7347 -8 503 -15 971 -15 1040 l0 125 85 6 c165 11 2628 5
2640 -7z m10800 -744 c1214 -3438 2449 -6902 2703 -7580 86 -230 111 -309 115
-357 l4 -63 -1581 0 -1581 0 -5 23 c-4 12 -142 515 -308 1117 l-303 1095
-1474 -3 c-811 -2 -1478 -7 -1482 -10 -4 -4 -143 -505 -310 -1114 l-303 -1108
-927 0 -928 0 0 54 c0 44 15 89 86 262 664 1613 1678 4139 2376 5919 329 839
924 2376 971 2508 6 16 77 17 1344 15 l1337 -3 266 -755z m-14502 -9772 c7 -7
12 -39 12 -73 0 -78 -31 -128 -130 -211 -340 -283 -1151 -567 -1777 -623 -154
-14 -666 -14 -899 -1 -198 12 -554 45 -974 90 -811 88 -1074 105 -1460 95
-526 -13 -929 -48 -1209 -106 -335 -69 -738 -276 -952 -489 -119 -119 -155
-183 -146 -265 19 -185 226 -322 443 -293 261 35 537 199 1003 596 60 51 64
52 124 52 34 0 68 -4 76 -9 23 -15 27 -123 6 -177 -15 -39 -42 -65 -213 -205
-237 -193 -380 -290 -544 -369 -196 -94 -268 -112 -483 -117 -209 -6 -286 6
-402 62 -128 60 -212 166 -243 305 -7 34 -11 112 -8 206 l3 150 39 80 c32 65
58 98 145 185 189 190 441 329 798 442 278 88 536 122 1138 148 311 13 1273 7
1485 -10 74 -6 281 -27 460 -46 644 -69 938 -88 1355 -88 357 0 611 22 950 84
260 48 411 98 660 219 244 119 376 202 533 335 52 44 54 45 125 45 44 0 78 -5
85 -12z m-3906 -835 c14 -13 18 -31 18 -89 0 -84 -9 -98 -73 -114 -344 -87
-849 -395 -1292 -789 -91 -81 -465 -486 -465 -504 0 -2 36 -7 81 -10 99 -8
116 -2 229 88 47 37 102 75 122 86 65 34 196 21 218 -21 6 -10 10 -50 10 -89
l0 -70 -62 -44 c-35 -24 -118 -79 -185 -122 -69 -44 -180 -128 -255 -194 -193
-169 -181 -161 -250 -161 -91 0 -98 7 -98 96 l0 76 62 65 63 65 -40 -7 c-92
-15 -122 -33 -191 -118 -102 -124 -455 -472 -579 -571 -435 -346 -892 -547
-1395 -613 -167 -22 -493 -13 -609 16 -284 72 -494 266 -563 518 -17 64 -21
108 -22 238 -1 156 0 162 28 223 34 74 101 139 191 185 83 42 202 50 268 18
76 -37 91 -61 95 -149 5 -98 -1 -106 -159 -213 -124 -84 -179 -138 -179 -176
0 -39 49 -146 94 -206 102 -136 255 -211 485 -237 150 -17 383 18 609 91 369
120 808 430 1190 838 l102 110 -82 -28 c-88 -30 -226 -89 -330 -142 -102 -51
-176 -106 -285 -211 -56 -53 -112 -100 -125 -103 -13 -3 -59 -5 -103 -3 l-80
3 -3 69 -3 70 88 86 c108 106 275 231 396 298 114 63 337 154 442 181 44 11
136 28 204 36 81 11 133 22 147 33 13 9 73 76 135 147 220 254 438 464 654
633 217 168 377 278 537 368 106 60 646 313 733 345 68 24 201 26 227 2z
m6361 -276 c25 -16 27 -22 27 -91 0 -64 -4 -78 -29 -117 -27 -40 -307 -313
-856 -834 -115 -110 -264 -251 -330 -315 -66 -63 -244 -230 -395 -371 -151
-141 -306 -289 -344 -329 -93 -99 -242 -328 -224 -345 8 -8 173 52 249 91 205
103 353 200 683 448 133 99 279 205 326 234 138 87 452 237 605 289 138 47
142 47 289 51 171 4 217 -5 283 -55 l43 -33 53 35 c50 34 55 35 147 35 77 0
101 -4 128 -20 32 -19 32 -21 32 -95 0 -55 -5 -86 -19 -113 -20 -39 -129 -148
-434 -432 -188 -175 -448 -450 -426 -450 31 0 206 69 309 121 187 95 497 307
728 498 161 134 437 295 662 387 253 103 339 124 516 124 136 0 178 -11 226
-57 l27 -25 212 188 c314 278 539 487 903 838 208 199 345 323 377 340 47 26
57 28 148 24 72 -2 104 -8 124 -21 25 -16 27 -22 27 -91 0 -64 -4 -78 -29
-117 -27 -40 -307 -313 -856 -834 -115 -110 -264 -251 -330 -315 -66 -63 -244
-230 -395 -371 -151 -141 -306 -289 -344 -329 -93 -99 -242 -328 -224 -345 8
-8 173 52 249 91 191 96 350 198 616 397 468 349 533 393 714 482 251 123 299
137 489 143 181 5 225 -4 275 -54 55 -55 68 -89 81 -218 11 -104 16 -125 41
-160 35 -49 95 -86 144 -86 44 0 165 58 297 141 89 57 102 63 163 67 99 6 109
-2 109 -92 0 -86 5 -81 -158 -190 -208 -139 -283 -166 -466 -166 -142 0 -183
11 -243 64 l-46 40 -26 -30 c-227 -262 -331 -362 -485 -465 -102 -69 -235
-135 -351 -175 -67 -23 -101 -28 -214 -32 -86 -3 -154 0 -189 8 -116 26 -172
123 -172 301 l0 88 -137 -90 c-167 -109 -400 -227 -531 -270 -89 -28 -106 -30
-212 -27 -89 2 -124 7 -154 22 -48 24 -91 90 -106 162 -6 30 -13 54 -15 54 -2
0 -32 -16 -66 -37 -95 -55 -254 -128 -349 -158 -72 -24 -107 -29 -228 -33
-120 -4 -151 -1 -189 13 -95 36 -158 126 -170 240 l-5 52 -86 -54 c-118 -74
-340 -185 -437 -218 -68 -24 -101 -29 -218 -33 -165 -5 -204 5 -266 73 -34 37
-41 52 -41 85 l0 41 -62 -36 c-106 -62 -260 -132 -325 -149 -39 -10 -104 -16
-180 -16 -187 0 -266 32 -315 128 -17 34 -29 78 -34 122 l-6 68 -87 -56 c-124
-82 -375 -206 -488 -242 -91 -29 -107 -31 -213 -28 -89 2 -124 7 -154 22 -48
24 -91 90 -106 162 -6 30 -13 54 -15 54 -2 0 -32 -16 -66 -37 -95 -55 -254
-128 -349 -158 -72 -24 -107 -29 -228 -33 -120 -4 -151 -1 -189 13 -95 37
-158 126 -170 241 -3 30 -8 54 -11 54 -3 0 -71 -49 -151 -109 -332 -248 -451
-301 -675 -301 -96 0 -114 3 -142 22 -39 27 -89 101 -103 153 -15 57 -14 153
4 211 19 65 204 303 380 489 174 183 281 315 252 308 -81 -19 -299 -153 -517
-317 -141 -106 -185 -144 -543 -465 -364 -327 -385 -341 -518 -341 -82 0 -92
2 -114 25 -22 22 -25 32 -25 105 0 52 5 91 15 110 8 16 61 66 118 112 56 45
152 130 213 188 61 58 166 153 235 210 68 57 162 137 207 179 84 74 161 173
142 179 -31 11 -296 -166 -660 -441 -325 -245 -466 -335 -780 -500 -271 -141
-377 -171 -593 -165 -224 5 -265 42 -275 239 l-5 108 -51 -38 c-141 -104 -275
-178 -421 -232 -85 -31 -98 -33 -226 -33 -132 -1 -136 0 -171 26 -61 46 -78
97 -78 225 0 173 48 290 193 475 109 138 419 433 590 560 l79 58 112 0 c151 0
156 -3 156 -116 0 -65 -5 -94 -20 -124 -13 -25 -103 -114 -257 -253 -267 -240
-349 -323 -414 -417 -59 -83 -119 -185 -119 -198 0 -14 134 42 223 91 84 48
263 173 542 382 219 163 337 259 610 494 66 57 130 107 143 112 33 13 226 11
255 -2 34 -15 47 -49 47 -119 0 -108 -5 -114 -300 -374 -240 -213 -486 -458
-548 -549 -46 -67 -46 -69 -27 -84 39 -29 166 13 407 133 237 118 423 236 740
467 101 74 237 173 303 221 66 47 158 116 205 151 47 36 136 90 198 122 l113
58 106 3 c121 5 168 -6 210 -50 24 -25 28 -38 31 -102 l4 -74 123 69 c187 106
263 131 412 137 143 5 161 2 207 -39 42 -36 56 -91 56 -212 0 -107 -19 -191
-55 -253 -16 -27 -106 -128 -200 -224 -274 -281 -395 -424 -376 -443 18 -18
207 85 411 222 185 124 251 173 515 376 316 243 489 347 769 462 248 102 336
123 512 123 136 0 178 -11 226 -57 l27 -25 212 188 c315 279 541 489 901 836
179 171 345 323 373 339 48 28 55 30 150 27 76 -2 108 -7 128 -21z m-5038
-4833 c154 -39 281 -168 321 -323 25 -99 16 -372 -15 -461 -75 -214 -214 -410
-496 -698 l-140 -144 210 4 c169 3 217 7 248 20 44 20 133 102 172 158 26 38
30 40 81 40 79 0 84 -4 84 -65 0 -37 -22 -123 -75 -294 -41 -134 -75 -244 -75
-247 0 -2 -274 -4 -610 -4 l-610 0 0 78 0 77 146 155 c528 561 748 950 669
1184 -42 123 -137 209 -231 209 -84 0 -295 -130 -369 -227 -25 -33 -32 -36
-79 -36 -76 0 -96 18 -96 87 0 49 5 63 44 122 121 182 296 322 457 365 75 20
287 21 364 0z m1429 1 c191 -50 371 -224 466 -451 62 -149 81 -263 87 -514 6
-253 -8 -387 -54 -534 -86 -274 -271 -474 -490 -531 -77 -20 -289 -20 -368 0
-111 28 -182 72 -286 175 -88 87 -102 106 -152 210 -92 190 -117 322 -117 627
0 283 22 417 94 585 94 216 278 390 458 434 76 18 290 17 362 -1z m1540 0
c191 -50 371 -224 466 -451 62 -149 81 -263 87 -514 6 -253 -8 -387 -54 -534
-86 -274 -271 -474 -490 -531 -77 -20 -289 -20 -368 0 -111 28 -182 72 -286
175 -88 87 -102 106 -152 210 -92 190 -117 322 -117 627 0 283 22 417 94 585
94 216 278 390 458 434 76 18 290 17 362 -1z m1550 0 c191 -50 371 -224 466
-451 62 -149 81 -263 87 -514 6 -253 -8 -387 -54 -534 -86 -274 -271 -474
-490 -531 -77 -20 -289 -20 -368 0 -111 28 -182 72 -286 175 -88 87 -102 106
-152 210 -92 190 -117 322 -117 627 0 283 22 417 94 585 94 216 278 390 458
434 76 18 290 17 362 -1z"/>
<path d="M21787 34510 c-120 -76 -206 -368 -194 -660 6 -136 23 -215 64 -299
31 -61 100 -127 144 -136 42 -9 126 33 195 99 l55 51 25 264 25 264 -26 91
c-48 169 -142 319 -214 344 -25 9 -36 6 -74 -18z"/>
<path d="M17734 34250 c-22 -9 -49 -28 -61 -41 -40 -44 -74 -134 -80 -213 l-6
-73 189 48 c104 27 195 51 202 54 20 7 -43 120 -98 176 -61 61 -95 73 -146 49z"/>
<path d="M23719 34220 c-20 -10 -58 -43 -85 -73 -47 -52 -103 -142 -94 -150
10 -9 385 -85 394 -80 5 3 6 40 3 83 -7 102 -40 170 -104 210 -54 35 -65 36
-114 10z"/>
<path d="M14149 32836 c-24 -12 -57 -42 -74 -65 -25 -36 -30 -52 -30 -104 0
-34 8 -90 19 -124 l19 -61 166 100 c91 56 168 102 169 104 7 5 -79 92 -116
117 -20 14 -53 33 -73 41 -35 15 -39 14 -80 -8z"/>
<path d="M28709 31766 c-71 -29 -117 -57 -203 -123 -38 -30 -61 -53 -51 -53 9
0 83 -25 163 -56 81 -31 154 -58 163 -61 11 -3 38 22 84 79 86 106 93 120 71
153 -24 37 -104 85 -140 85 -17 0 -56 -11 -87 -24z"/>
<path d="M28335 31286 c-102 -25 -192 -93 -230 -172 -16 -34 -16 -36 6 -69 47
-68 146 -113 221 -100 41 7 49 15 166 157 68 82 122 152 119 154 -7 7 -189 44
-212 43 -11 0 -42 -6 -70 -13z"/>
<path d="M11975 31282 c-43 -26 -92 -85 -99 -119 -8 -36 21 -135 58 -198 l27
-46 37 31 c20 16 84 75 142 130 l105 99 -30 26 c-40 33 -162 95 -189 95 -11 0
-35 -8 -51 -18z"/>
<path d="M10132 30175 c-131 -29 -249 -102 -370 -229 -39 -42 -72 -80 -72 -85
0 -9 76 -71 929 -754 l474 -380 36 19 c70 38 156 129 190 202 44 97 50 173 22
277 -47 171 -153 336 -326 510 -211 212 -458 372 -656 424 -106 28 -156 31
-227 16z"/>
<path d="M31340 29036 c-25 -7 -67 -22 -94 -34 l-48 -22 24 -32 c14 -18 65
-87 113 -153 49 -66 91 -122 93 -125 8 -11 94 98 123 156 25 51 28 64 19 88
-20 53 -53 88 -104 112 -57 27 -63 27 -126 10z"/>
<path d="M6450 24493 c-174 -17 -399 -48 -407 -57 -21 -21 -47 -2977 -40
-4576 6 -1372 22 -2846 33 -3017 l6 -92 49 -10 c107 -23 399 -61 559 -72 131
-9 201 -10 312 0 396 33 661 134 938 356 423 339 685 872 845 1719 159 842
198 1958 104 2996 -77 861 -253 1513 -520 1930 -107 166 -346 418 -507 533
-346 248 -808 346 -1372 290z"/>
<path d="M32988 23533 c-8 -32 -72 -251 -141 -488 -305 -1045 -1072 -3813
-1060 -3825 8 -8 2521 -6 2529 3 20 20 -775 2718 -1135 3852 -166 521 -164
515 -171 515 -3 0 -13 -26 -22 -57z"/>
<path d="M23408 11800 c-187 -63 -368 -169 -628 -366 -225 -170 -337 -278
-421 -404 -43 -65 -47 -89 -18 -113 29 -23 82 -18 189 18 128 44 261 130 510
334 267 218 550 526 508 553 -22 13 -49 9 -140 -22z"/>
<path d="M21295 11789 c-108 -36 -299 -134 -400 -203 -40 -28 -117 -89 -171
-136 -107 -94 -402 -403 -442 -464 l-26 -38 23 -19 c13 -11 38 -19 55 -19 114
0 492 193 632 323 151 139 387 399 449 493 68 103 40 117 -120 63z"/>
<path d="M25335 11789 c-108 -36 -299 -134 -400 -203 -40 -28 -117 -89 -171
-136 -107 -94 -402 -403 -442 -464 l-26 -38 23 -19 c13 -11 38 -19 55 -19 114
0 492 193 632 323 151 139 387 399 449 493 68 103 40 117 -120 63z"/>
<path d="M27302 11780 c-151 -54 -483 -297 -658 -481 -74 -78 -161 -208 -170
-254 -7 -41 8 -70 46 -90 27 -14 37 -14 95 0 259 60 517 250 754 555 85 109
126 189 117 226 -8 31 -61 64 -101 64 -16 -1 -54 -9 -83 -20z"/>
<path d="M19573 8241 c-128 -93 -206 -327 -228 -681 -8 -127 8 -339 36 -474
39 -193 115 -340 203 -391 55 -32 72 -31 127 4 91 57 165 212 206 434 14 72
18 146 18 342 -1 230 -3 260 -26 370 -53 243 -152 404 -261 421 -26 5 -42 -1
-75 -25z"/>
<path d="M21113 8241 c-128 -93 -206 -327 -228 -681 -8 -127 8 -339 36 -474
39 -193 115 -340 203 -391 55 -32 72 -31 127 4 91 57 165 212 206 434 14 72
18 146 18 342 -1 230 -3 260 -26 370 -53 243 -152 404 -261 421 -26 5 -42 -1
-75 -25z"/>
<path d="M22663 8241 c-128 -93 -206 -327 -228 -681 -8 -127 8 -339 36 -474
39 -193 115 -340 203 -391 55 -32 72 -31 127 4 91 57 165 212 206 434 14 72
18 146 18 342 -1 230 -3 260 -26 370 -53 243 -152 404 -261 421 -26 5 -42 -1
-75 -25z"/>
</g>
</svg>
